<?xml version="1.0" encoding="UTF-8" standalone="no"?>
<!-- Generator: Adobe Illustrator 16.0.0, SVG Export Plug-In . SVG Version: 6.00 Build 0)  -->

<svg
   xmlns:dc="http://purl.org/dc/elements/1.1/"
   xmlns:cc="http://creativecommons.org/ns#"
   xmlns:rdf="http://www.w3.org/1999/02/22-rdf-syntax-ns#"
   xmlns:svg="http://www.w3.org/2000/svg"
   xmlns="http://www.w3.org/2000/svg"
   xmlns:sodipodi="http://sodipodi.sourceforge.net/DTD/sodipodi-0.dtd"
   xmlns:inkscape="http://www.inkscape.org/namespaces/inkscape"
   version="1.1"
   id="Calque_1"
   x="0px"
   y="0px"
   width="387.62601"
   height="387.62799"
   viewBox="0 0 387.626 387.62797"
   enable-background="new 0 0 841.89 595.28"
   xml:space="preserve"
   sodipodi:docname="logo.svg"
   inkscape:version="0.92.3 (2405546, 2018-03-11)"
   inkscape:export-filename="D:\itsme\logo_128.png"
   inkscape:export-xdpi="31.700497"
   inkscape:export-ydpi="31.700497"><metadata
   id="metadata25"><rdf:RDF><cc:Work
       rdf:about=""><dc:format>image/svg+xml</dc:format><dc:type
         rdf:resource="http://purl.org/dc/dcmitype/StillImage" /><dc:title></dc:title></cc:Work></rdf:RDF></metadata><defs
   id="defs23" /><sodipodi:namedview
   pagecolor="#ffffff"
   bordercolor="#666666"
   borderopacity="1"
   objecttolerance="10"
   gridtolerance="10"
   guidetolerance="10"
   inkscape:pageopacity="0"
   inkscape:pageshadow="2"
   inkscape:window-width="726"
   inkscape:window-height="480"
   id="namedview21"
   showgrid="false"
   fit-margin-top="20"
   fit-margin-left="20"
   fit-margin-right="20"
   fit-margin-bottom="20"
   inkscape:zoom="0.56066789"
   inkscape:cx="335.58754"
   inkscape:cy="180.17034"
   inkscape:window-x="108"
   inkscape:window-y="1152"
   inkscape:window-maximized="0"
   inkscape:current-layer="Calque_1" />
<g
   id="g18"
   transform="translate(-226.9995,-104.2805)">
	<path
   d="m 420.813,464.661 c 91.991,0 166.565,-74.574 166.565,-166.566 0,-91.992 -74.574,-166.567 -166.565,-166.567 -91.992,0 -166.566,74.575 -166.566,166.567 10e-4,91.992 74.575,166.566 166.566,166.566 z"
   id="path2"
   inkscape:connector-curvature="0"
   style="fill:#ffffff" />
	<polygon
   points="529.904,168.491 582.688,250.798 588.056,315.211 569.269,376.941 501.675,447.438 441.621,462.826 392.13,321.474 461.912,320.579 427.97,128.233 "
   id="polygon4"
   style="fill:#bdbcbc" />
	<path
   d="m 420.813,464.661 c 91.991,0 166.565,-74.574 166.565,-166.566 0,-91.992 -74.574,-166.567 -166.565,-166.567 -91.992,0 -166.566,74.575 -166.566,166.567 10e-4,91.992 74.575,166.566 166.566,166.566 z"
   id="path6"
   inkscape:connector-curvature="0"
   style="fill:none;stroke:#000000;stroke-width:14.49499989" />
	<path
   d="m 350.987,245.978 c 7.94,0 14.376,-6.437 14.376,-14.376 0,-7.94 -6.436,-14.376 -14.376,-14.376 -7.939,0 -14.376,6.436 -14.376,14.376 0,7.939 6.436,14.376 14.376,14.376 z"
   id="path8"
   inkscape:connector-curvature="0" />
	<path
   d="m 325.272,346.059 c 18.061,0 32.703,-14.642 32.703,-32.702 0,-18.062 -14.642,-32.704 -32.703,-32.704 -18.061,0 -32.703,14.642 -32.703,32.704 10e-4,18.06 14.642,32.702 32.703,32.702 z"
   id="path10"
   inkscape:connector-curvature="0"
   style="fill:#6e00aa" />
	<path
   d="m 430.503,133.118 31.953,186.804 h -65.693 m -34.477,51.38 c 0,0 18.072,24.849 59.731,24.849 41.657,0 58.812,-24.849 58.812,-24.849"
   id="path12"
   inkscape:connector-curvature="0"
   style="fill:none;stroke:#000000;stroke-width:9.57219982;stroke-linecap:round;stroke-linejoin:round" />
	<path
   d="m 475.235,240.719 c 0,0 4.506,-15.207 20.574,-18.041 16.067,-2.833 25.148,9.979 25.148,9.979"
   id="path14"
   inkscape:connector-curvature="0"
   style="fill:none;stroke:#000000;stroke-width:9.57219982;stroke-linecap:round;stroke-linejoin:round" />
	<path
   d="m 519.217,346.059 c 18.062,0 32.703,-14.642 32.703,-32.702 0,-18.062 -14.641,-32.704 -32.703,-32.704 -18.061,0 -32.703,14.642 -32.703,32.704 0,18.06 14.642,32.702 32.703,32.702 z"
   id="path16"
   inkscape:connector-curvature="0"
   style="fill:#ff505a" />
</g>
</svg>