<?xml version="1.0" encoding="UTF-8" standalone="no"?>
<svg
   xmlns:dc="http://purl.org/dc/elements/1.1/"
   xmlns:cc="http://creativecommons.org/ns#"
   xmlns:rdf="http://www.w3.org/1999/02/22-rdf-syntax-ns#"
   xmlns:svg="http://www.w3.org/2000/svg"
   xmlns="http://www.w3.org/2000/svg"
   xmlns:sodipodi="http://sodipodi.sourceforge.net/DTD/sodipodi-0.dtd"
   xmlns:inkscape="http://www.inkscape.org/namespaces/inkscape"
   viewBox="0 0 17.280001 16"
   version="1.1"
   id="svg26"
   sodipodi:docname="settings-icon.svg"
   width="17.280001"
   height="16"
   inkscape:version="0.92.3 (2405546, 2018-03-11)">
  <metadata
     id="metadata32">
    <rdf:RDF>
      <cc:Work
         rdf:about="">
        <dc:format>image/svg+xml</dc:format>
        <dc:type
           rdf:resource="http://purl.org/dc/dcmitype/StillImage" />
      </cc:Work>
    </rdf:RDF>
  </metadata>
  <defs
     id="defs30" />
  <sodipodi:namedview
     pagecolor="#ffffff"
     bordercolor="#666666"
     borderopacity="1"
     objecttolerance="10"
     gridtolerance="10"
     guidetolerance="10"
     inkscape:pageopacity="0"
     inkscape:pageshadow="2"
     inkscape:window-width="2560"
     inkscape:window-height="1017"
     id="namedview28"
     showgrid="false"
     inkscape:zoom="15.703704"
     inkscape:cx="8.64"
     inkscape:cy="6.1442184"
     inkscape:window-x="-8"
     inkscape:window-y="-8"
     inkscape:window-maximized="1"
     inkscape:current-layer="svg26" />
  <g
     id="g24"
     transform="matrix(0.32,0,0,0.32,0,-0.64)"
     style="fill:#6558f5">
    <path
       d="m 36,41 v 4 H 1 a 1,1 0 1 0 0,2 h 35 v 4 a 1,1 0 0 0 1,1 h 12 a 1,1 0 0 0 1,-1 v -4 h 3 a 1,1 0 1 0 0,-2 H 50 V 41 A 1,1 0 0 0 49,40 H 37 a 1,1 0 0 0 -1,1 z M 20,22 v 4 H 1 a 1,1 0 1 0 0,2 h 19 v 4 a 1,1 0 0 0 1,1 h 12 a 1,1 0 0 0 1,-1 v -4 h 19 a 1,1 0 1 0 0,-2 H 34 V 22 A 1,1 0 0 0 33,21 H 21 a 1,1 0 0 0 -1,1 z M 4,3 V 7 H 1 a 1,1 0 1 0 0,2 h 3 v 4 a 1,1 0 0 0 1,1 h 12 a 1,1 0 0 0 1,-1 V 9 H 53 A 1,1 0 1 0 53,7 H 18 V 3 A 1,1 0 0 0 17,2 H 5 A 1,1 0 0 0 4,3 Z"
       id="path22"
       inkscape:connector-curvature="0" />
  </g>
</svg>
